<mxfile host="Electron" modified="2024-03-16T18:08:08.563Z" agent="Mozilla/5.0 (X11; Linux x86_64) AppleWebKit/537.36 (KHTML, like Gecko) draw.io/24.0.4 Chrome/120.0.6099.109 Electron/28.1.0 Safari/537.36" etag="xKk1mfbejB1UZKCoowf0" version="24.0.4" type="device">
  <diagram name="Page-1" id="bUzElv2l2GWEFmTksL0H">
    <mxGraphModel dx="1757" dy="1742" grid="1" gridSize="10" guides="1" tooltips="1" connect="1" arrows="1" fold="1" page="1" pageScale="1" pageWidth="850" pageHeight="1100" math="0" shadow="0">
      <root>
        <mxCell id="0" />
        <mxCell id="1" parent="0" />
        <mxCell id="N9tLhcMqZauuIE8o6E9M-1" value="" style="endArrow=none;html=1;rounded=0;strokeColor=none;fontFamily=Courier New;fontSize=15;" parent="1" edge="1">
          <mxGeometry width="50" height="50" relative="1" as="geometry">
            <mxPoint x="1680.4299999999998" y="660" as="sourcePoint" />
            <mxPoint x="1680" y="60" as="targetPoint" />
          </mxGeometry>
        </mxCell>
        <mxCell id="N9tLhcMqZauuIE8o6E9M-86" value="" style="rounded=0;whiteSpace=wrap;html=1;fillColor=#FFFFFF;strokeWidth=1;fontFamily=Courier New;fontSize=17;" parent="1" vertex="1">
          <mxGeometry x="1560" y="80" width="120" height="460" as="geometry" />
        </mxCell>
        <mxCell id="N9tLhcMqZauuIE8o6E9M-87" value="&lt;font style=&quot;font-size: 17px;&quot;&gt;.text&lt;br style=&quot;font-size: 17px;&quot;&gt;&lt;/font&gt;" style="rounded=0;whiteSpace=wrap;html=1;fillColor=#E1D5E7;strokeWidth=1;fontFamily=Courier New;fontSize=17;" parent="1" vertex="1">
          <mxGeometry x="1560" y="420" width="120" height="100" as="geometry" />
        </mxCell>
        <mxCell id="N9tLhcMqZauuIE8o6E9M-88" value="&lt;font style=&quot;font-size: 17px;&quot;&gt;.data&lt;br style=&quot;font-size: 17px;&quot;&gt;&lt;/font&gt;" style="rounded=0;whiteSpace=wrap;html=1;fillColor=#E1D5E7;strokeWidth=1;fontFamily=Courier New;fontSize=17;" parent="1" vertex="1">
          <mxGeometry x="1560" y="370" width="120" height="50" as="geometry" />
        </mxCell>
        <mxCell id="N9tLhcMqZauuIE8o6E9M-89" value="&lt;font style=&quot;font-size: 17px;&quot;&gt;stack&lt;br style=&quot;font-size: 17px;&quot;&gt;&lt;/font&gt;" style="rounded=0;whiteSpace=wrap;html=1;fillColor=#E1D5E7;strokeWidth=1;fontFamily=Courier New;fontSize=17;" parent="1" vertex="1">
          <mxGeometry x="1560" y="140" width="120" height="70" as="geometry" />
        </mxCell>
        <mxCell id="N9tLhcMqZauuIE8o6E9M-90" value="&lt;font style=&quot;font-size: 17px;&quot;&gt;.rodata&lt;br style=&quot;font-size: 17px;&quot;&gt;&lt;/font&gt;" style="rounded=0;whiteSpace=wrap;html=1;fillColor=#E1D5E7;strokeWidth=1;fontFamily=Courier New;fontSize=17;" parent="1" vertex="1">
          <mxGeometry x="1560" y="320" width="120" height="50" as="geometry" />
        </mxCell>
        <mxCell id="N9tLhcMqZauuIE8o6E9M-127" value="&lt;b style=&quot;font-size: 17px;&quot;&gt;&lt;font style=&quot;font-size: 17px;&quot;&gt;...&lt;/font&gt;&lt;/b&gt;" style="text;html=1;align=center;verticalAlign=middle;resizable=0;points=[];autosize=1;strokeColor=none;fillColor=none;rotation=90;fontFamily=Courier New;fontSize=17;fontStyle=1" parent="1" vertex="1">
          <mxGeometry x="1602" y="252" width="50" height="30" as="geometry" />
        </mxCell>
        <mxCell id="N9tLhcMqZauuIE8o6E9M-138" style="edgeStyle=orthogonalEdgeStyle;rounded=0;orthogonalLoop=1;jettySize=auto;html=1;exitX=0.092;exitY=0.999;exitDx=0;exitDy=0;entryX=0;entryY=0.5;entryDx=0;entryDy=0;fontFamily=Courier New;fontSize=17;exitPerimeter=0;" parent="1" source="N9tLhcMqZauuIE8o6E9M-128" target="N9tLhcMqZauuIE8o6E9M-129" edge="1">
          <mxGeometry relative="1" as="geometry">
            <Array as="points">
              <mxPoint x="930" y="245" />
            </Array>
          </mxGeometry>
        </mxCell>
        <mxCell id="N9tLhcMqZauuIE8o6E9M-146" style="edgeStyle=orthogonalEdgeStyle;rounded=0;orthogonalLoop=1;jettySize=auto;html=1;entryX=0;entryY=0;entryDx=0;entryDy=0;" parent="1" edge="1">
          <mxGeometry relative="1" as="geometry">
            <Array as="points">
              <mxPoint x="927" y="190" />
              <mxPoint x="927" y="190" />
            </Array>
            <mxPoint x="927" y="120" as="sourcePoint" />
            <mxPoint x="927" y="390" as="targetPoint" />
          </mxGeometry>
        </mxCell>
        <mxCell id="N9tLhcMqZauuIE8o6E9M-128" value="&lt;font style=&quot;font-size: 17px;&quot;&gt;vm_map&lt;/font&gt;" style="rounded=0;whiteSpace=wrap;html=1;fontSize=17;fontFamily=Courier New;" parent="1" vertex="1">
          <mxGeometry x="920" y="80" width="110" height="40" as="geometry" />
        </mxCell>
        <mxCell id="N9tLhcMqZauuIE8o6E9M-141" style="edgeStyle=orthogonalEdgeStyle;rounded=0;orthogonalLoop=1;jettySize=auto;html=1;exitX=1;exitY=0.5;exitDx=0;exitDy=0;entryX=0;entryY=0.5;entryDx=0;entryDy=0;fontFamily=Courier New;fontSize=17;" parent="1" source="N9tLhcMqZauuIE8o6E9M-129" target="N9tLhcMqZauuIE8o6E9M-134" edge="1">
          <mxGeometry relative="1" as="geometry" />
        </mxCell>
        <mxCell id="N9tLhcMqZauuIE8o6E9M-129" value="&lt;font style=&quot;font-size: 17px;&quot;&gt;.text&lt;/font&gt;" style="rounded=0;whiteSpace=wrap;html=1;fontSize=17;fontFamily=Courier New;" parent="1" vertex="1">
          <mxGeometry x="960" y="230" width="120" height="30" as="geometry" />
        </mxCell>
        <mxCell id="N9tLhcMqZauuIE8o6E9M-130" value="" style="endArrow=none;html=1;rounded=0;strokeColor=none;fontFamily=Courier New;fontSize=15;" parent="1" edge="1">
          <mxGeometry width="50" height="50" relative="1" as="geometry">
            <mxPoint x="920.4299999999998" y="640" as="sourcePoint" />
            <mxPoint x="920" y="40" as="targetPoint" />
          </mxGeometry>
        </mxCell>
        <mxCell id="N9tLhcMqZauuIE8o6E9M-133" value="&lt;div style=&quot;font-size: 17px;&quot;&gt;&lt;font style=&quot;font-size: 17px;&quot;&gt;r-x&lt;/font&gt;&lt;/div&gt;" style="rounded=0;whiteSpace=wrap;html=1;fontSize=17;fontFamily=Courier New;" parent="1" vertex="1">
          <mxGeometry x="960" y="260" width="120" height="30" as="geometry" />
        </mxCell>
        <mxCell id="N9tLhcMqZauuIE8o6E9M-142" style="edgeStyle=orthogonalEdgeStyle;rounded=0;orthogonalLoop=1;jettySize=auto;html=1;exitX=1;exitY=0.5;exitDx=0;exitDy=0;entryX=0;entryY=0.5;entryDx=0;entryDy=0;fontFamily=Courier New;fontSize=17;" parent="1" source="N9tLhcMqZauuIE8o6E9M-134" target="N9tLhcMqZauuIE8o6E9M-136" edge="1">
          <mxGeometry relative="1" as="geometry" />
        </mxCell>
        <mxCell id="N9tLhcMqZauuIE8o6E9M-134" value=".data" style="rounded=0;whiteSpace=wrap;html=1;fontSize=17;fontFamily=Courier New;" parent="1" vertex="1">
          <mxGeometry x="1120" y="230" width="120" height="30" as="geometry" />
        </mxCell>
        <mxCell id="N9tLhcMqZauuIE8o6E9M-135" value="rw-" style="rounded=0;whiteSpace=wrap;html=1;fontSize=17;fontFamily=Courier New;" parent="1" vertex="1">
          <mxGeometry x="1120" y="260" width="120" height="30" as="geometry" />
        </mxCell>
        <mxCell id="N9tLhcMqZauuIE8o6E9M-143" style="edgeStyle=orthogonalEdgeStyle;rounded=0;orthogonalLoop=1;jettySize=auto;html=1;exitX=1;exitY=0.5;exitDx=0;exitDy=0;fontSize=17;" parent="1" source="N9tLhcMqZauuIE8o6E9M-136" edge="1">
          <mxGeometry relative="1" as="geometry">
            <mxPoint x="1440" y="244.68421052631584" as="targetPoint" />
          </mxGeometry>
        </mxCell>
        <mxCell id="N9tLhcMqZauuIE8o6E9M-136" value=".rodata" style="rounded=0;whiteSpace=wrap;html=1;fontSize=17;fontFamily=Courier New;" parent="1" vertex="1">
          <mxGeometry x="1290" y="230" width="120" height="30" as="geometry" />
        </mxCell>
        <mxCell id="N9tLhcMqZauuIE8o6E9M-137" value="&lt;div style=&quot;font-size: 17px;&quot;&gt;r--&lt;/div&gt;" style="rounded=0;whiteSpace=wrap;html=1;fontSize=17;fontFamily=Courier New;" parent="1" vertex="1">
          <mxGeometry x="1290" y="260" width="120" height="30" as="geometry" />
        </mxCell>
        <mxCell id="N9tLhcMqZauuIE8o6E9M-154" style="edgeStyle=orthogonalEdgeStyle;rounded=0;orthogonalLoop=1;jettySize=auto;html=1;exitX=0.5;exitY=1;exitDx=0;exitDy=0;entryX=0;entryY=0.5;entryDx=0;entryDy=0;" parent="1" source="N9tLhcMqZauuIE8o6E9M-145" target="N9tLhcMqZauuIE8o6E9M-152" edge="1">
          <mxGeometry relative="1" as="geometry">
            <Array as="points">
              <mxPoint x="975" y="470" />
            </Array>
          </mxGeometry>
        </mxCell>
        <mxCell id="N9tLhcMqZauuIE8o6E9M-145" value="&lt;div style=&quot;font-size: 17px;&quot;&gt;pmap&lt;/div&gt;" style="rounded=0;whiteSpace=wrap;html=1;fontSize=17;fontFamily=Courier New;" parent="1" vertex="1">
          <mxGeometry x="920" y="390" width="110" height="40" as="geometry" />
        </mxCell>
        <mxCell id="N9tLhcMqZauuIE8o6E9M-153" value="" style="group" parent="1" vertex="1" connectable="0">
          <mxGeometry x="1090" y="440" width="280" height="60" as="geometry" />
        </mxCell>
        <mxCell id="N9tLhcMqZauuIE8o6E9M-152" value="" style="rounded=0;whiteSpace=wrap;html=1;container=0;" parent="N9tLhcMqZauuIE8o6E9M-153" vertex="1">
          <mxGeometry width="280" height="60" as="geometry" />
        </mxCell>
        <mxCell id="N9tLhcMqZauuIE8o6E9M-148" value="&lt;div style=&quot;font-size: 16px;&quot;&gt;Virtual addresses&lt;/div&gt;" style="text;html=1;align=center;verticalAlign=middle;whiteSpace=wrap;rounded=0;fontSize=16;container=0;" parent="N9tLhcMqZauuIE8o6E9M-153" vertex="1">
          <mxGeometry x="20" y="15" width="60" height="30" as="geometry" />
        </mxCell>
        <mxCell id="N9tLhcMqZauuIE8o6E9M-149" value="&lt;div style=&quot;font-size: 16px;&quot;&gt;Physical addresses&lt;/div&gt;" style="text;html=1;align=center;verticalAlign=middle;whiteSpace=wrap;rounded=0;fontSize=16;container=0;" parent="N9tLhcMqZauuIE8o6E9M-153" vertex="1">
          <mxGeometry x="190" y="15" width="60" height="30" as="geometry" />
        </mxCell>
        <mxCell id="N9tLhcMqZauuIE8o6E9M-150" value="" style="shape=flexArrow;endArrow=classic;html=1;rounded=0;width=3.9024390243902443;endSize=3.431707317073171;endWidth=10.75550267697799;fontSize=16;" parent="N9tLhcMqZauuIE8o6E9M-153" edge="1">
          <mxGeometry width="50" height="50" relative="1" as="geometry">
            <mxPoint x="100" y="29.5" as="sourcePoint" />
            <mxPoint x="170" y="29.5" as="targetPoint" />
          </mxGeometry>
        </mxCell>
        <mxCell id="N9tLhcMqZauuIE8o6E9M-155" value="&lt;font face=&quot;Courier New&quot; style=&quot;font-size: 17px;&quot;&gt;vm_map_entires&lt;/font&gt;" style="text;whiteSpace=wrap;html=1;" parent="1" vertex="1">
          <mxGeometry x="960" y="170" width="150" height="40" as="geometry" />
        </mxCell>
        <mxCell id="IjEHyYSgRYI9i_yBnPsB-1" value="&lt;font style=&quot;font-size: 17px;&quot;&gt;&lt;b&gt;0&lt;/b&gt;&lt;b&gt;&lt;br&gt;&lt;/b&gt;&lt;/font&gt;" style="text;html=1;align=center;verticalAlign=middle;whiteSpace=wrap;rounded=0;" parent="1" vertex="1">
          <mxGeometry x="1547" y="530" width="13" height="10" as="geometry" />
        </mxCell>
        <mxCell id="IjEHyYSgRYI9i_yBnPsB-2" value="&lt;font style=&quot;font-size: 17px;&quot;&gt;&lt;b style=&quot;font-size: 17px;&quot;&gt;2&lt;/b&gt;&lt;/font&gt;&lt;font size=&quot;1&quot;&gt;&lt;b&gt;&lt;sup style=&quot;font-size: 10px;&quot;&gt;N&lt;/sup&gt;&lt;/b&gt;&lt;/font&gt;" style="text;html=1;align=center;verticalAlign=middle;whiteSpace=wrap;rounded=0;fontSize=17;" parent="1" vertex="1">
          <mxGeometry x="1530" y="77" width="30" height="20" as="geometry" />
        </mxCell>
      </root>
    </mxGraphModel>
  </diagram>
</mxfile>
